HIERARCHY
ROOT Hips
{
	OFFSET 51.446499 -7.469076 96.088600
	CHANNELS 6 Xposition Yposition Zposition Xrotation Yrotation Zrotation
	JOINT spine
	{
		OFFSET 0.000000 -0.467660 8.132492
		CHANNELS 3 Xrotation Yrotation Zrotation
		JOINT spine1
		{
			OFFSET 0.000000 -0.000001 10.349800
			CHANNELS 3 Xrotation Yrotation Zrotation
			JOINT spine2
			{
				OFFSET 0.000000 -0.000002 9.916992
				CHANNELS 3 Xrotation Yrotation Zrotation
				JOINT Neck
				{
					OFFSET 0.000000 -1.213904 25.460999
					CHANNELS 3 Xrotation Yrotation Zrotation
					JOINT Head
					{
						OFFSET 0.000000 -0.000001 7.692444
						CHANNELS 3 Xrotation Yrotation Zrotation
						End Site
						{
							OFFSET 0.000000 6.140627 18.619995
						}
					}
				}
				JOINT RightShoulder
				{
					OFFSET -4.175751 0.581443 10.709595
					CHANNELS 3 Xrotation Yrotation Zrotation
					JOINT RightArm
					{
						OFFSET 0.000000 -0.000002 14.046600
						CHANNELS 3 Xrotation Yrotation Zrotation
						JOINT RightArmRoll
						{
							OFFSET 0.000000 -0.000001 7.090973
							CHANNELS 3 Xrotation Yrotation Zrotation
							JOINT RightForeArm
							{
								OFFSET 0.000000 -0.000003 20.653503
								CHANNELS 3 Xrotation Yrotation Zrotation
								JOINT RightForeArmRoll
								{
									OFFSET 0.000000 -0.000001 7.957184
									CHANNELS 3 Xrotation Yrotation Zrotation
									JOINT RightHand
									{
										OFFSET 0.000000 -0.000003 15.968292
										CHANNELS 3 Xrotation Yrotation Zrotation
										End Site
										{
											OFFSET 0.000000 0.000000 0.100006
										}
									}
								}
							}
						}
					}
				}
				JOINT LeftShoulder
				{
					OFFSET 4.175751 0.581443 10.709595
					CHANNELS 3 Xrotation Yrotation Zrotation
					JOINT LeftArm
					{
						OFFSET 0.000000 -0.000002 14.046600
						CHANNELS 3 Xrotation Yrotation Zrotation
						JOINT LeftArmRoll
						{
							OFFSET 0.000000 -0.000001 7.090988
							CHANNELS 3 Xrotation Yrotation Zrotation
							JOINT LeftForeArm
							{
								OFFSET 0.000000 -0.000003 20.653503
								CHANNELS 3 Xrotation Yrotation Zrotation
								JOINT LeftForeArmRoll
								{
									OFFSET 0.000000 -0.000001 7.957184
									CHANNELS 3 Xrotation Yrotation Zrotation
									JOINT LeftHand
									{
										OFFSET 0.000000 -0.000003 15.968307
										CHANNELS 3 Xrotation Yrotation Zrotation
										End Site
										{
											OFFSET 0.000000 0.000000 0.100006
										}
									}
								}
							}
						}
					}
				}
			}
		}
	}
	JOINT RightUpLeg
	{
		OFFSET -7.208340 1.108840 -1.321823
		CHANNELS 3 Xrotation Yrotation Zrotation
		JOINT RightUpLegRoll
		{
			OFFSET 0.000000 -0.000003 18.723801
			CHANNELS 3 Xrotation Yrotation Zrotation
			JOINT RightLeg
			{
				OFFSET 0.000000 0.000004 -23.186600
				CHANNELS 3 Xrotation Yrotation Zrotation
				JOINT RightLegRoll
				{
					OFFSET 0.000000 -0.000004 23.262398
					CHANNELS 3 Xrotation Yrotation Zrotation
					JOINT RightFoot
					{
						OFFSET 0.000000 -0.000003 19.362106
						CHANNELS 3 Xrotation Yrotation Zrotation
						JOINT RightToeBase
						{
							OFFSET 0.000000 -0.000003 16.185699
							CHANNELS 3 Xrotation Yrotation Zrotation
							End Site
							{
								OFFSET 0.006859 0.903520 7.838623
							}
						}
					}
				}
			}
		}
	}
	JOINT LeftUpLeg
	{
		OFFSET 7.208340 1.108840 -1.321823
		CHANNELS 3 Xrotation Yrotation Zrotation
		JOINT LeftUpLegRoll
		{
			OFFSET 0.000000 -0.000003 18.723900
			CHANNELS 3 Xrotation Yrotation Zrotation
			JOINT LeftLeg
			{
				OFFSET 0.000000 -0.000004 23.186508
				CHANNELS 3 Xrotation Yrotation Zrotation
				JOINT LeftLegRoll
				{
					OFFSET 0.000000 -0.000004 23.477509
					CHANNELS 3 Xrotation Yrotation Zrotation
					JOINT LeftFoot
					{
						OFFSET 0.000000 -0.000003 19.147003
						CHANNELS 3 Xrotation Yrotation Zrotation
						JOINT LeftToeBase
						{
							OFFSET 0.000000 -0.000003 16.185699
							CHANNELS 3 Xrotation Yrotation Zrotation
							End Site
							{
								OFFSET -0.030746 0.903521 7.838623
							}
						}
					}
				}
			}
		}
	}
}
MOTION
Frames: 10
Frame Time: 0.041667
51.896606 -7.514744 96.197792 -5.482020 1.416355 0.368625 -0.854826 -0.720048 -0.052582 2.293515 -1.439676 -0.107048 3.938817 -1.440860 -0.089775 12.506584 0.381421 -5.602284 -0.285390 0.185839 -5.681526 -20.959702 -61.745880 -24.739423 -50.229911 -117.325889 -24.645512 -0.000003 -0.000002 -0.000006 1.439577 -4.770362 -0.520329 -0.000001 0.000007 -3.009011 -5.000209 -7.999431 0.000078 -9.444832 61.754609 11.325029 -48.511005 116.861053 37.570395 0.000001 -0.000000 0.000005 0.067614 8.784956 1.131554 -0.000002 -0.000014 3.052681 -5.000203 7.998925 -0.000151 -0.001410 -174.150003 3.215185 -179.999991 0.000006 -1.119996 169.300814 -1.225324 -0.552491 -0.000001 0.000001 0.100998 69.310629 6.591628 2.892698 25.456955 -7.355615 0.000009 1.370234 172.095222 -2.525489 -0.000005 -0.000004 -0.950819 -13.000653 0.787190 0.739530 0.000002 0.000002 -0.189161 72.759560 -6.027568 -4.317685 25.459482 7.355615 -0.003737 
51.916405 -7.519564 96.197090 -5.487562 1.419676 0.355523 -0.853325 -0.719622 -0.052532 2.297525 -1.438823 -0.107154 3.942828 -1.440005 -0.089874 12.481983 0.380119 -5.602605 -0.279561 0.194989 -5.682879 -20.973890 -61.754022 -24.755850 -50.231540 -117.318471 -24.561685 -0.000005 -0.000002 -0.000005 1.408697 -4.710052 -0.519857 0.000000 0.000007 -3.009010 -5.000210 -7.999430 0.000075 -9.456639 61.745026 11.338193 -48.502529 116.858512 37.519629 0.000002 0.000001 0.000006 0.067617 8.765966 1.140647 0.000001 -0.000015 3.052850 -5.000202 7.998923 -0.000151 -0.013657 -174.146997 3.208636 -179.999991 0.000007 -1.119996 169.266677 -1.212422 -0.552797 -0.000001 0.000002 0.103365 69.336939 6.594399 2.884241 25.456955 -7.355616 0.000011 1.375097 172.101260 -2.523625 -0.000005 -0.000004 -0.950862 -13.017051 0.786445 0.739532 0.000001 0.000002 -0.190204 72.776376 -6.030190 -4.310476 25.459482 7.355614 -0.003737 
51.930607 -7.528851 96.195389 -5.493052 1.422998 0.342628 -0.851831 -0.719190 -0.052482 2.301575 -1.437940 -0.107298 3.946878 -1.439131 -0.090009 12.456780 0.378165 -5.602807 -0.273190 0.204607 -5.684145 -20.988703 -61.762580 -24.772983 -50.234365 -117.310275 -24.481350 -0.000003 0.000000 -0.000002 1.377597 -4.651360 -0.519419 -0.000001 0.000006 -3.009009 -5.000210 -7.999430 0.000080 -9.468726 61.734713 11.351628 -48.492858 116.856791 37.467887 0.000003 -0.000000 0.000004 0.067616 8.747176 1.149959 -0.000002 -0.000015 3.053020 -5.000205 7.998925 -0.000151 -0.026535 -174.145003 3.201772 -179.999991 0.000006 -1.119996 169.231406 -1.198525 -0.553932 -0.000001 0.000001 0.105810 69.364328 6.597244 2.875330 25.456955 -7.355616 0.000011 1.379804 172.108268 -2.521734 -0.000005 -0.000004 -0.950890 -13.033650 0.785715 0.739534 0.000001 0.000002 -0.191249 72.793219 -6.032859 -4.303176 25.459489 7.355616 -0.003737 
51.934708 -7.531297 96.193802 -5.498517 1.426319 0.329877 -0.850354 -0.718753 -0.052432 2.305655 -1.437056 -0.107467 3.950958 -1.438245 -0.090169 12.431275 0.375756 -5.602951 -0.266437 0.214549 -5.685343 -21.003897 -61.771384 -24.790566 -50.236892 -117.301928 -24.402065 -0.000002 -0.000001 -0.000003 1.346355 -4.593815 -0.518989 -0.000001 0.000008 -3.009010 -5.000210 -7.999431 0.000079 -9.481027 61.724085 11.365294 -48.483510 116.855207 37.416736 0.000001 0.000001 0.000004 0.067616 8.728517 1.159440 0.000000 -0.000015 3.053190 -5.000206 7.998924 -0.000150 -0.039869 -174.141998 3.194700 -179.999991 0.000005 -1.119996 169.195151 -1.184627 -0.555071 -0.000001 0.000001 0.108314 69.392290 6.600231 2.866110 25.456957 -7.355615 0.000010 1.384395 172.114278 -2.519872 -0.000005 -0.000005 -0.950906 -13.050349 0.784994 0.739534 0.000001 0.000002 -0.192294 72.810165 -6.035543 -4.295669 25.459487 7.355619 -0.003737 
51.954807 -7.541337 96.194901 -5.503980 1.429641 0.317210 -0.848884 -0.718312 -0.052383 2.309746 -1.436163 -0.107650 3.955037 -1.437360 -0.090343 12.405468 0.373085 -5.603035 -0.259465 0.224679 -5.686512 -21.019403 -61.780448 -24.808500 -50.239118 -117.293432 -24.323415 -0.000003 -0.000002 -0.000007 1.315022 -4.536929 -0.518529 0.000002 0.000007 -3.009011 -5.000211 -7.999430 0.000079 -9.493363 61.713047 11.378990 -48.472685 116.854278 37.364116 0.000003 0.000001 0.000005 0.067619 8.709925 1.169012 -0.000001 -0.000015 3.053350 -5.000204 7.998925 -0.000151 -0.053455 -174.140003 3.187502 -179.999991 0.000006 -1.119996 169.158405 -1.170729 -0.555192 -0.000001 0.000001 0.110848 69.420602 6.603248 2.856773 25.456957 -7.355617 0.000011 1.388907 172.120275 -2.518008 -0.000006 -0.000004 -0.950918 -13.067052 0.784277 0.739533 0.000002 0.000002 -0.193340 72.827015 -6.038247 -4.288370 25.459484 7.355615 -0.003737 
51.966106 -7.543422 96.194092 -5.509431 1.432972 0.304565 -0.847412 -0.717873 -0.052334 2.313836 -1.435259 -0.107839 3.959138 -1.436466 -0.090521 12.379666 0.370350 -5.603128 -0.252442 0.234855 -5.687686 -21.034944 -61.789511 -24.826476 -50.242851 -117.284293 -24.246646 -0.000001 -0.000001 -0.000004 1.283674 -4.480199 -0.518026 -0.000001 0.000007 -3.009009 -5.000207 -7.999430 0.000076 -9.505804 61.702098 11.392792 -48.463484 116.852775 37.313337 0.000005 0.000000 0.000005 0.067614 8.691356 1.178603 0.000003 -0.000015 3.053520 -5.000204 7.998923 -0.000151 -0.067104 -174.136998 3.180274 -179.999991 0.000005 -1.119996 169.121658 -1.155855 -0.556119 -0.000001 0.000001 0.113389 69.449111 6.606246 2.847319 25.456955 -7.355615 0.000011 1.393408 172.127310 -2.516125 -0.000006 -0.000004 -0.950927 -13.083850 0.783562 0.739534 0.000001 0.000002 -0.194385 72.843981 -6.040933 -4.280861 25.459487 7.355616 -0.003736 
51.982407 -7.542853 96.181190 -5.514891 1.436304 0.291878 -0.845938 -0.717433 -0.052285 2.317916 -1.434366 -0.108020 3.963216 -1.435570 -0.090693 12.353962 0.367744 -5.603232 -0.245528 0.244938 -5.688869 -21.050377 -61.798472 -24.844332 -50.245078 -117.275810 -24.167784 -0.000003 -0.000001 -0.000004 1.252381 -4.423149 -0.517430 -0.000002 0.000007 -3.009013 -5.000209 -7.999432 0.000075 -9.518113 61.691157 11.406467 -48.452658 116.851846 37.260666 0.000003 0.000001 0.000006 0.067617 8.672746 1.188146 0.000002 -0.000015 3.053680 -5.000202 7.998924 -0.000150 -0.080627 -174.135004 3.173100 -179.999991 0.000006 -1.119996 169.085008 -1.141965 -0.557199 -0.000001 0.000001 0.115916 69.477408 6.609208 2.838071 25.456953 -7.355615 0.000010 1.397941 172.133307 -2.514252 -0.000005 -0.000004 -0.950939 -13.100548 0.782844 0.739533 0.000003 0.000002 -0.195429 72.860852 -6.043637 -4.273457 25.459487 7.355616 -0.003737 
51.987808 -7.549585 96.181801 -5.520366 1.439635 0.279090 -0.844458 -0.716997 -0.052235 2.321987 -1.433483 -0.108182 3.967286 -1.434695 -0.090845 12.328459 0.365465 -5.603404 -0.238880 0.254787 -5.690097 -21.065558 -61.807290 -24.861889 -50.247321 -117.267313 -24.087955 -0.000003 -0.000000 -0.000005 1.221200 -4.365283 -0.516730 -0.000000 0.000007 -3.009011 -5.000209 -7.999431 0.000078 -9.530329 61.680631 11.420026 -48.442987 116.850125 37.209156 0.000003 0.000001 0.000006 0.067616 8.654046 1.197578 0.000001 -0.000015 3.053850 -5.000202 7.998925 -0.000151 -0.093833 -174.131998 3.166086 -179.999991 0.000005 -1.119996 169.049040 -1.128079 -0.557263 -0.000001 0.000001 0.118402 69.505180 6.612146 2.828848 25.456953 -7.355614 0.000009 1.402552 172.139332 -2.512387 -0.000005 -0.000004 -0.950959 -13.117247 0.782120 0.739533 0.000002 0.000002 -0.196475 72.877797 -6.046266 -4.266141 25.459489 7.355616 -0.003737 
51.997307 -7.564894 96.196594 -5.525880 1.442976 0.266137 -0.842962 -0.716567 -0.052185 2.326028 -1.432609 -0.108315 3.971326 -1.433820 -0.090970 12.303455 0.363708 -5.603663 -0.232677 0.264263 -5.691406 -21.080201 -61.815657 -24.878829 -50.249705 -117.258898 -24.006629 -0.000003 -0.000002 -0.000005 1.190208 -4.306123 -0.515881 -0.000002 0.000007 -3.009010 -5.000209 -7.999431 0.000079 -9.542261 61.670523 11.433306 -48.433165 116.848335 37.157165 0.000001 -0.000000 0.000004 0.067612 8.635195 1.206827 0.000004 -0.000015 3.054022 -5.000204 7.998924 -0.000151 -0.106525 -174.129020 3.159302 -179.999991 0.000005 -1.119995 169.014097 -1.114201 -0.558276 -0.000001 0.000001 0.120824 69.532268 6.614921 2.820136 25.456955 -7.355617 0.000011 1.407306 172.146353 -2.510486 -0.000005 -0.000004 -0.950992 -13.133748 0.781385 0.739532 0.000001 0.000002 -0.197520 72.894648 -6.048885 -4.258827 25.459486 7.355617 -0.003736 
52.017601 -7.566375 96.191895 -5.531427 1.446307 0.252957 -0.841452 -0.716143 -0.052135 2.330018 -1.431755 -0.108408 3.975325 -1.432975 -0.091055 12.279052 0.362670 -5.604057 -0.227069 0.273225 -5.692807 -21.094216 -61.823601 -24.895042 -50.250904 -117.251262 -23.921716 -0.000003 0.000000 -0.000003 1.159473 -4.245183 -0.514860 -0.000002 0.000006 -3.009012 -5.000208 -7.999430 0.000077 -9.553902 61.661131 11.446286 -48.424358 116.845658 37.105935 0.000004 0.000002 0.000005 0.067618 8.616137 1.215821 0.000000 -0.000015 3.054190 -5.000205 7.998924 -0.000151 -0.118516 -174.127012 3.152862 -179.999991 0.000006 -1.119995 168.980533 -1.101322 -0.558454 -0.000001 0.000001 0.123157 69.558189 6.617611 2.811677 25.456957 -7.355615 0.000010 1.412252 172.152350 -2.508616 -0.000005 -0.000004 -0.951041 -13.150045 0.780635 0.739530 0.000001 0.000002 -0.198563 72.911381 -6.051493 -4.251614 25.459489 7.355617 -0.003736 
